<svg class="animated" id="freepik_stories-programmer" xmlns="http://www.w3.org/2000/svg" viewBox="0 0 500 500" version="1.1" xmlns:xlink="http://www.w3.org/1999/xlink" xmlns:svgjs="http://svgjs.com/svgjs"><style>svg#freepik_stories-programmer:not(.animated) .animable {opacity: 0;}svg#freepik_stories-programmer.animated #freepik--Chair--inject-13 {animation: 1.5s Infinite  linear floating;animation-delay: 0s;}svg#freepik_stories-programmer.animated #freepik--Screens--inject-13 {animation: 1.5s Infinite  linear wind;animation-delay: 0s;}svg#freepik_stories-programmer.animated #freepik--Character--inject-13 {animation: 1.5s Infinite  linear floating;animation-delay: 0s;}svg#freepik_stories-programmer.animated #freepik--Device--inject-13 {animation: 1.5s Infinite  linear wind;animation-delay: 0s;}svg#freepik_stories-programmer.animated #freepik--Coffee--inject-13 {animation: 1.5s Infinite  linear wind;animation-delay: 0s;}            @keyframes floating {                0% {                    opacity: 1;                    transform: translateY(0px);                }                50% {                    transform: translateY(-10px);                }                100% {                    opacity: 1;                    transform: translateY(0px);                }            }                    @keyframes wind {                0% {                    transform: rotate( 0deg );                }                25% {                    transform: rotate( 1deg );                }                75% {                    transform: rotate( -1deg );                }            }        </style><g id="freepik--background-complete--inject-13" class="animable" style="transform-origin: 263.048px 166.68px;"><path d="M458.24,276.2H309.55V57.94H458.24Zm-144.69-4H454.24V61.94H313.55Z" style="fill: rgb(235, 235, 235); transform-origin: 383.895px 167.07px;" id="el07r6ybtcng0q" class="animable"></path><rect x="381.84" y="62.99" width="4" height="211.21" style="fill: rgb(235, 235, 235); transform-origin: 383.84px 168.595px;" id="eljkuaoffy68" class="animable"></rect><rect x="305.92" y="66.03" width="155.95" height="5.57" style="fill: rgb(235, 235, 235); transform-origin: 383.895px 68.815px;" id="elho8u7lr1h8t" class="animable"></rect><rect x="305.92" y="72.29" width="155.95" height="5.57" style="fill: rgb(235, 235, 235); transform-origin: 383.895px 75.075px;" id="elxo35rhe9wos" class="animable"></rect><rect x="305.92" y="78.56" width="155.95" height="5.57" style="fill: rgb(235, 235, 235); transform-origin: 383.895px 81.345px;" id="elv9eti7qx9f" class="animable"></rect><rect x="305.92" y="84.83" width="155.95" height="5.57" style="fill: rgb(235, 235, 235); transform-origin: 383.895px 87.615px;" id="elhuv8k69jhre" class="animable"></rect><rect x="305.92" y="91.09" width="155.95" height="5.57" style="fill: rgb(235, 235, 235); transform-origin: 383.895px 93.875px;" id="elggnhv3x6gv" class="animable"></rect><rect x="305.92" y="97.36" width="155.95" height="5.57" style="fill: rgb(235, 235, 235); transform-origin: 383.895px 100.145px;" id="el08i6u96ugqt9" class="animable"></rect><rect x="305.92" y="103.63" width="155.95" height="5.57" style="fill: rgb(235, 235, 235); transform-origin: 383.895px 106.415px;" id="elkivat01opr" class="animable"></rect><rect x="305.92" y="109.89" width="155.95" height="5.57" style="fill: rgb(235, 235, 235); transform-origin: 383.895px 112.675px;" id="eloj6ftdsj2vh" class="animable"></rect><rect x="305.92" y="116.16" width="155.95" height="5.57" style="fill: rgb(235, 235, 235); transform-origin: 383.895px 118.945px;" id="el0kia81mnlpz" class="animable"></rect><rect x="448.99" y="64.9" width="1" height="128.39" style="fill: rgb(38, 50, 56); transform-origin: 449.49px 129.095px;" id="eliiao6dkwc2h" class="animable"></rect><polygon points="451.26 197.94 447.71 197.94 448.61 192.84 450.38 192.84 451.26 197.94" style="fill: rgb(38, 50, 56); transform-origin: 449.485px 195.39px;" id="el4trs4wynkio" class="animable"></polygon><rect x="452.59" y="64.9" width="1" height="175.73" style="fill: rgb(38, 50, 56); transform-origin: 453.09px 152.765px;" id="el0xwi35j1ymk" class="animable"></rect><polygon points="454.87 244.38 451.32 244.38 452.21 239.28 453.98 239.28 454.87 244.38" style="fill: rgb(38, 50, 56); transform-origin: 453.095px 241.83px;" id="eluy8cp60yvl" class="animable"></polygon><rect x="299.71" y="57.16" width="168.36" height="11.65" style="fill: rgb(219, 219, 219); transform-origin: 383.89px 62.985px;" id="elxz1e6mqf0y" class="animable"></rect><path d="M66,171.55c0-.84.11-3.07.11-4,0-4.07-1.45-5.9-5.24-6a2.68,2.68,0,1,1,0-5.35c3.79-.16,5.24-1.95,5.24-6.07,0-1-.11-3.18-.11-4,0-5.4,2.29-8.86,10.93-10.75a2.41,2.41,0,0,1,1.5,4.57c-5.41,1.67-6.19,3.4-6.19,7.19,0,1.11.12,2.95.12,4.12,0,4.35-2.12,6.47-5.8,7.64,3.73,1.22,5.8,3.29,5.8,7.63,0,1.18-.12,3-.12,4.13,0,3.79.78,5.52,6.19,7.19a2.41,2.41,0,0,1-1.5,4.57C68.28,180.47,66,177,66,171.55Z" style="fill: rgb(235, 235, 235); transform-origin: 68.9841px 158.9px;" id="el2bv71d23pgs" class="animable"></path><path d="M98.65,146.07c0,.84-.11,3.07-.11,4,0,4.12,1.51,5.91,5.3,6.07a2.68,2.68,0,1,1,0,5.35c-3.79.12-5.3,2-5.3,6,0,.95.11,3.18.11,4,0,5.46-2.28,8.92-10.92,10.81a2.4,2.4,0,0,1-1.45-4.57c5.35-1.67,6.13-3.4,6.13-7.19,0-1.12-.11-2.95-.11-4.13,0-4.34,2.12-6.46,5.8-7.63-3.74-1.23-5.8-3.29-5.8-7.64,0-1.17.11-3,.11-4.12,0-3.79-.78-5.52-6.13-7.19a2.4,2.4,0,0,1,1.45-4.57C96.37,137.21,98.65,140.67,98.65,146.07Z" style="fill: rgb(235, 235, 235); transform-origin: 95.6989px 158.78px;" id="elsck6ewhumrs" class="animable"></path><path d="M213.59,93.75a3.27,3.27,0,0,1-2.28,5.6,3.46,3.46,0,0,1-2.39-.93L194.34,83.63c-.16,0-.21-.16-.26-.31a.91.91,0,0,0-.16-.11,1.36,1.36,0,0,1-.15-.41.3.3,0,0,1-.16-.21c-.05-.1-.05-.26-.1-.31s-.1-.21-.1-.26v-.36c0-.11-.06-.16-.06-.31s.06-.21.06-.26v-.37c0-.1.1-.15.1-.2s.05-.26.1-.42.06,0,.06-.1a3.34,3.34,0,0,1,.25-.47.1.1,0,0,1,.11-.1.93.93,0,0,1,.31-.37l14.58-14.78a3.38,3.38,0,0,1,4.67,0,3.3,3.3,0,0,1,0,4.67l-12.3,12.4Z" style="fill: rgb(235, 235, 235); transform-origin: 203.958px 81.347px;" id="eli26ggebcrsn" class="animable"></path><path d="M226.82,95.41l12.71-30.25a2.89,2.89,0,0,1,3.79-1.51,2.81,2.81,0,0,1,1.45,3.69l-12.71,30.3a2.88,2.88,0,0,1-2.65,1.71,2.38,2.38,0,0,1-1-.21A2.8,2.8,0,0,1,226.82,95.41Z" style="fill: rgb(235, 235, 235); transform-origin: 235.796px 81.3835px;" id="elkgwj4e89loi" class="animable"></path><path d="M269.88,83.21s0,.06-.05.06a4.07,4.07,0,0,1-.36.36L254.89,98.42a3.37,3.37,0,0,1-2.34.93,3.33,3.33,0,0,1-2.33-.93,3.28,3.28,0,0,1,0-4.67l12.29-12.4L250.22,69a3.28,3.28,0,0,1,0-4.67,3.38,3.38,0,0,1,4.67,0l14.58,14.78a3.1,3.1,0,0,1,.36.37c.05,0,.05.1.05.1a4.88,4.88,0,0,1,.26.47s.05,0,.05.1a2,2,0,0,0,.16.47c0,.05,0,.05,0,.15v.37s.05.2.05.26-.05.2-.05.26V82s0,0,0,.1a3.72,3.72,0,0,0-.16.47s-.05,0-.05.16S270,83,269.88,83.21Z" style="fill: rgb(235, 235, 235); transform-origin: 259.822px 81.3719px;" id="el92xpyfclku" class="animable"></path></g><g id="freepik--Shadow--inject-13" class="animable" style="transform-origin: 250px 426.67px;"><ellipse cx="250" cy="426.67" rx="201.54" ry="16.06" style="fill: rgb(235, 235, 235); transform-origin: 250px 426.67px;" id="elkgh4dld0ao" class="animable"></ellipse></g><g id="freepik--Chair--inject-13" class="animable" style="transform-origin: 379.48px 336.99px;"><polygon points="440.04 407.23 318.92 407.23 343.07 266.75 433.64 266.75 440.04 407.23" style="fill: rgb(219, 219, 219); transform-origin: 379.48px 336.99px;" id="elv20lg34z1uj" class="animable"></polygon><polygon points="440.04 407.23 429.42 407.23 423.46 266.75 433.64 266.75 440.04 407.23" style="fill: rgb(166, 166, 166); transform-origin: 431.75px 336.99px;" id="elxc0umtu99c" class="animable"></polygon></g><g id="freepik--Desk--inject-13" class="animable" style="transform-origin: 250px 407.23px;"><polygon points="40.74 407.23 93.06 406.99 145.37 406.9 250 406.73 354.63 406.9 406.94 406.99 459.26 407.23 406.94 407.48 354.63 407.56 250 407.73 145.37 407.56 93.06 407.48 40.74 407.23" style="fill: rgb(38, 50, 56); transform-origin: 250px 407.23px;" id="el2m6raykd2s6" class="animable"></polygon></g><g id="freepik--Screens--inject-13" class="animable" style="transform-origin: 186.82px 179.55px;"><rect x="55.06" y="57.16" width="99.38" height="63.4" style="fill: rgb(255, 255, 255); transform-origin: 104.75px 88.86px;" id="elj80wugmw84h" class="animable"></rect><path d="M155.06,121.18H54.43V56.53H155.06Zm-99.38-1.25h98.13V57.79H55.68Z" style="fill: rgb(235, 235, 235); transform-origin: 104.745px 88.855px;" id="el8whx0cp11k" class="animable"></path><rect x="55.06" y="57.16" width="99.38" height="11.99" style="fill: rgb(4, 211, 97); transform-origin: 104.75px 63.155px;" id="el3220750oupw" class="animable"></rect><path d="M155.06,69.78H54.43V56.53H155.06ZM55.68,68.52h98.13V57.79H55.68Z" style="fill: rgb(235, 235, 235); transform-origin: 104.745px 63.155px;" id="elq8zo169ec6" class="animable"></path><path d="M66.31,63.24a3,3,0,1,1-3-3A3,3,0,0,1,66.31,63.24Z" style="fill: rgb(166, 166, 166); transform-origin: 63.31px 63.24px;" id="elzphppdrrxel" class="animable"></path><path d="M78.63,63.24a3,3,0,1,1-3-3A3,3,0,0,1,78.63,63.24Z" style="fill: rgb(235, 235, 235); transform-origin: 75.63px 63.24px;" id="elu4figgdsoe" class="animable"></path><path d="M91,63.24a3,3,0,1,1-3-3A3,3,0,0,1,91,63.24Z" style="fill: rgb(255, 255, 255); transform-origin: 88px 63.24px;" id="elpv188oexi" class="animable"></path><path d="M72.21,92.85a12.26,12.26,0,0,1,12.25-12,12.5,12.5,0,0,1,7.72,2.61,1.92,1.92,0,0,1-2.34,3,8.29,8.29,0,0,0-5.38-1.84,8.89,8.89,0,0,0-6,2.4A8.26,8.26,0,0,0,76,92.85a8.1,8.1,0,0,0,2.44,5.81,8.85,8.85,0,0,0,6,2.41,8.41,8.41,0,0,0,5.38-1.84,2,2,0,0,1,2.67.37,2,2,0,0,1-.33,2.67,12.5,12.5,0,0,1-7.72,2.61A12.21,12.21,0,0,1,72.21,92.85Z" style="fill: rgb(235, 235, 235); transform-origin: 82.5331px 92.865px;" id="el1ynyktkbt9k" class="animable"></path><path d="M98.25,99.07a1.74,1.74,0,0,1,2.44-.24,10.87,10.87,0,0,0,6.38,2.57,7.21,7.21,0,0,0,4.17-1.23,3,3,0,0,0,1.44-2.41,1.94,1.94,0,0,0-.3-1.07,3.3,3.3,0,0,0-1-1,13.42,13.42,0,0,0-4.57-1.57h-.07a17.9,17.9,0,0,1-4.3-1.3,7.14,7.14,0,0,1-3.11-2.6,5.17,5.17,0,0,1-.77-2.74,6.21,6.21,0,0,1,2.67-4.88A9.92,9.92,0,0,1,107,80.83a13,13,0,0,1,7.28,2.68,1.72,1.72,0,0,1,.47,2.37,1.69,1.69,0,0,1-2.37.5c-1.71-1.14-3.34-2.14-5.38-2.14a6.44,6.44,0,0,0-3.74,1.13A2.68,2.68,0,0,0,102,87.48a1.57,1.57,0,0,0,.24.93,3,3,0,0,0,.9.87,11.39,11.39,0,0,0,4.17,1.47h.07a19.8,19.8,0,0,1,4.61,1.4,7.78,7.78,0,0,1,3.33,2.78,5.32,5.32,0,0,1,.81,2.83,6.47,6.47,0,0,1-2.88,5.18,10.42,10.42,0,0,1-6.17,1.9,14.31,14.31,0,0,1-8.55-3.34A1.76,1.76,0,0,1,98.25,99.07Z" style="fill: rgb(235, 235, 235); transform-origin: 107.009px 92.8354px;" id="elb4oma66x3pe" class="animable"></path><path d="M120.19,99.07a1.74,1.74,0,0,1,2.44-.24A10.81,10.81,0,0,0,129,101.4a7.24,7.24,0,0,0,4.18-1.23,3,3,0,0,0,1.43-2.41,1.94,1.94,0,0,0-.3-1.07,3.25,3.25,0,0,0-1-1,13.5,13.5,0,0,0-4.57-1.57h-.07a18.12,18.12,0,0,1-4.31-1.3,7.11,7.11,0,0,1-3.1-2.6,5.17,5.17,0,0,1-.77-2.74,6.18,6.18,0,0,1,2.67-4.88,9.92,9.92,0,0,1,5.78-1.77,13.06,13.06,0,0,1,7.28,2.68,1.72,1.72,0,0,1,.46,2.37,1.69,1.69,0,0,1-2.37.5c-1.7-1.14-3.34-2.14-5.37-2.14a6.41,6.41,0,0,0-3.74,1.13,2.68,2.68,0,0,0-1.27,2.11,1.65,1.65,0,0,0,.23.93,3.26,3.26,0,0,0,.9.87,11.45,11.45,0,0,0,4.18,1.47h.06a19.5,19.5,0,0,1,4.61,1.4,7.81,7.81,0,0,1,3.34,2.78,5.4,5.4,0,0,1,.8,2.83,6.46,6.46,0,0,1-2.87,5.18,10.47,10.47,0,0,1-6.18,1.9,14.37,14.37,0,0,1-8.55-3.34A1.77,1.77,0,0,1,120.19,99.07Z" style="fill: rgb(235, 235, 235); transform-origin: 128.937px 92.8353px;" id="el1e748fii1tb" class="animable"></path><rect x="219.2" y="238.54" width="99.38" height="63.4" style="fill: rgb(255, 255, 255); transform-origin: 268.89px 270.24px;" id="elve52h90btcp" class="animable"></rect><path d="M319.21,302.57H218.57V237.91H319.21Zm-99.38-1.26H318V239.17H219.83Z" style="fill: rgb(235, 235, 235); transform-origin: 268.89px 270.24px;" id="elw91jki6cz1a" class="animable"></path><rect x="219.2" y="238.54" width="99.38" height="11.99" style="fill: rgb(4, 211, 97); transform-origin: 268.89px 244.535px;" id="els6d5wzkl63" class="animable"></rect><path d="M319.21,251.16H218.57V237.91H319.21Zm-99.38-1.26H318V239.17H219.83Z" style="fill: rgb(235, 235, 235); transform-origin: 268.89px 244.535px;" id="elx3e5ujpnuj" class="animable"></path><path d="M230.46,244.62a3,3,0,1,1-3-3A3,3,0,0,1,230.46,244.62Z" style="fill: rgb(166, 166, 166); transform-origin: 227.46px 244.62px;" id="elp1uydybmtj" class="animable"></path><path d="M242.78,244.62a3,3,0,1,1-3-3A3,3,0,0,1,242.78,244.62Z" style="fill: rgb(235, 235, 235); transform-origin: 239.78px 244.62px;" id="elje8g6xh4ks" class="animable"></path><path d="M255.1,244.62a3,3,0,1,1-3-3A3,3,0,0,1,255.1,244.62Z" style="fill: rgb(255, 255, 255); transform-origin: 252.1px 244.62px;" id="elmlsvvne7l5m" class="animable"></path><path d="M237.76,274.24a12.25,12.25,0,0,1,12.25-12,12.49,12.49,0,0,1,7.72,2.6,2,2,0,0,1,.33,2.67,2,2,0,0,1-2.67.37A8.35,8.35,0,0,0,250,266a8.85,8.85,0,0,0-6,2.41,8.24,8.24,0,0,0-2.44,5.81,8.13,8.13,0,0,0,2.44,5.81,8.84,8.84,0,0,0,6,2.4,8.37,8.37,0,0,0,5.38-1.84,2,2,0,0,1,2.67.37,2,2,0,0,1-.33,2.67,12.5,12.5,0,0,1-7.72,2.61A12.21,12.21,0,0,1,237.76,274.24Z" style="fill: rgb(235, 235, 235); transform-origin: 248.093px 274.24px;" id="elsxshfx3vzji" class="animable"></path><path d="M269.78,276.34H265a1.84,1.84,0,1,1,0-3.67h4.74V268a1.9,1.9,0,1,1,3.8,0v4.64h4.75a1.84,1.84,0,0,1,0,3.67h-4.75V281a1.9,1.9,0,1,1-3.8,0Z" style="fill: rgb(235, 235, 235); transform-origin: 271.51px 274.5px;" id="elwvnusksw7m" class="animable"></path><path d="M290.48,276.34h-4.74a1.84,1.84,0,1,1,0-3.67h4.74V268a1.88,1.88,0,0,1,1.9-1.91,1.91,1.91,0,0,1,1.91,1.91v4.64H299a1.84,1.84,0,0,1,0,3.67h-4.74V281a1.91,1.91,0,0,1-1.91,1.91,1.88,1.88,0,0,1-1.9-1.91Z" style="fill: rgb(235, 235, 235); transform-origin: 292.235px 274.5px;" id="elohtwpdsf7o8" class="animable"></path><rect x="106.49" y="116.73" width="165.74" height="136.11" style="fill: rgb(255, 255, 255); transform-origin: 189.36px 184.785px;" id="elb9inz5n2ixa" class="animable"></rect><path d="M272.86,253.48h-167V116.11h167Zm-165.74-1.26H271.6V117.36H107.12Z" style="fill: rgb(235, 235, 235); transform-origin: 189.36px 184.795px;" id="elycatjkge0xn" class="animable"></path><rect x="106.49" y="116.73" width="165.74" height="11.99" style="fill: rgb(4, 211, 97); transform-origin: 189.36px 122.725px;" id="elweuhny1e9ud" class="animable"></rect><path d="M272.86,129.35h-167V116.11h167Zm-165.74-1.26H271.6V117.36H107.12Z" style="fill: rgb(235, 235, 235); transform-origin: 189.36px 122.73px;" id="el4xkolr6n7m8" class="animable"></path><path d="M117.74,122.82a3,3,0,1,1-3-3A3,3,0,0,1,117.74,122.82Z" style="fill: rgb(166, 166, 166); transform-origin: 114.74px 122.82px;" id="ela16i1scx50e" class="animable"></path><path d="M130.06,122.82a3,3,0,1,1-3-3A3,3,0,0,1,130.06,122.82Z" style="fill: rgb(235, 235, 235); transform-origin: 127.06px 122.82px;" id="elm5t9s4ix5vi" class="animable"></path><path d="M142.39,122.82a3,3,0,1,1-3-3A3,3,0,0,1,142.39,122.82Z" style="fill: rgb(255, 255, 255); transform-origin: 139.39px 122.82px;" id="elnsn22dyefjr" class="animable"></path><rect x="119.35" y="152.57" width="6.41" height="2.34" style="fill: rgb(235, 235, 235); transform-origin: 122.555px 153.74px;" id="elj2nq1r8mqp8" class="animable"></rect><rect x="130.43" y="152.57" width="73.53" height="2.34" style="fill: rgb(235, 235, 235); transform-origin: 167.195px 153.74px;" id="elrrd0za0u0ts" class="animable"></rect><rect x="207.9" y="152.57" width="12.17" height="2.34" style="fill: rgb(4, 211, 97); transform-origin: 213.985px 153.74px;" id="elghxm7oh82dn" class="animable"></rect><rect x="235.74" y="183.9" width="12.18" height="2.34" style="fill: rgb(235, 235, 235); transform-origin: 241.83px 185.07px;" id="el4x5rh338i7p" class="animable"></rect><rect x="222.72" y="152.57" width="21.05" height="2.34" style="fill: rgb(166, 166, 166); transform-origin: 233.245px 153.74px;" id="elxt7djy0k66f" class="animable"></rect><rect x="125.76" y="158.84" width="6.41" height="2.34" style="fill: rgb(235, 235, 235); transform-origin: 128.965px 160.01px;" id="eltbf8y0k9ft" class="animable"></rect><rect x="136.68" y="158.84" width="48.25" height="2.34" style="fill: rgb(166, 166, 166); transform-origin: 160.805px 160.01px;" id="eljwgwmazeefb" class="animable"></rect><rect x="204.6" y="183.9" width="28.25" height="2.34" style="fill: rgb(166, 166, 166); transform-origin: 218.725px 185.07px;" id="eloi3rsdak2f" class="animable"></rect><rect x="130.43" y="177.64" width="46.09" height="2.34" style="fill: rgb(166, 166, 166); transform-origin: 153.475px 178.81px;" id="el8qpng3rpzao" class="animable"></rect><rect x="136.68" y="165.1" width="32.33" height="2.34" style="fill: rgb(4, 211, 97); transform-origin: 152.845px 166.27px;" id="elg9d4tlotlek" class="animable"></rect><rect x="216.04" y="171.37" width="12.33" height="2.34" style="fill: rgb(166, 166, 166); transform-origin: 222.205px 172.54px;" id="elfgoaxlf1fyd" class="animable"></rect><rect x="172.6" y="165.1" width="51.63" height="2.34" style="fill: rgb(166, 166, 166); transform-origin: 198.415px 166.27px;" id="elgixq4bvr1ds" class="animable"></rect><rect x="130.43" y="183.9" width="61.63" height="2.34" style="fill: rgb(4, 211, 97); transform-origin: 161.245px 185.07px;" id="elv002n7x39x" class="animable"></rect><rect x="221.36" y="158.84" width="33.4" height="2.34" style="fill: rgb(4, 211, 97); transform-origin: 238.06px 160.01px;" id="elkji906m0fle" class="animable"></rect><rect x="187.96" y="158.84" width="30.75" height="2.34" style="fill: rgb(235, 235, 235); transform-origin: 203.335px 160.01px;" id="el2smvdhffelb" class="animable"></rect><rect x="226.66" y="165.1" width="20.75" height="2.34" style="fill: rgb(235, 235, 235); transform-origin: 237.035px 166.27px;" id="eltga03n3bcsc" class="animable"></rect><rect x="125.76" y="165.1" width="6.41" height="2.34" style="fill: rgb(235, 235, 235); transform-origin: 128.965px 166.27px;" id="elpxbqd4x1oy" class="animable"></rect><rect x="119.35" y="171.37" width="6.41" height="2.34" style="fill: rgb(166, 166, 166); transform-origin: 122.555px 172.54px;" id="el9ycdmzw8hth" class="animable"></rect><rect x="130.43" y="171.37" width="37.88" height="2.34" style="fill: rgb(235, 235, 235); transform-origin: 149.37px 172.54px;" id="eliuzx7d60pls" class="animable"></rect><rect x="136.68" y="190.17" width="37.88" height="2.34" style="fill: rgb(235, 235, 235); transform-origin: 155.62px 191.34px;" id="el31f1pezg9y8" class="animable"></rect><rect x="207.32" y="196.44" width="28.8" height="2.34" style="fill: rgb(4, 211, 97); transform-origin: 221.72px 197.61px;" id="elmc4jmhh0buc" class="animable"></rect><rect x="177.64" y="190.17" width="37.99" height="2.34" style="fill: rgb(4, 211, 97); transform-origin: 196.635px 191.34px;" id="ellydyy8hpvhs" class="animable"></rect><rect x="170.94" y="196.44" width="33.07" height="2.34" style="fill: rgb(235, 235, 235); transform-origin: 187.475px 197.61px;" id="elqp6u5brga2f" class="animable"></rect><rect x="136.68" y="196.44" width="10.97" height="2.34" style="fill: rgb(166, 166, 166); transform-origin: 142.165px 197.61px;" id="elhotgq72d66s" class="animable"></rect><rect x="179.13" y="177.64" width="40.94" height="2.34" style="fill: rgb(235, 235, 235); transform-origin: 199.6px 178.81px;" id="elry1crbmywc" class="animable"></rect><rect x="222.72" y="177.64" width="26.05" height="2.34" style="fill: rgb(4, 211, 97); transform-origin: 235.745px 178.81px;" id="ellpko9wlxyfj" class="animable"></rect><rect x="172.16" y="171.37" width="40.89" height="2.34" style="fill: rgb(4, 211, 97); transform-origin: 192.605px 172.54px;" id="elolc5wuyq2eb" class="animable"></rect><rect x="119.35" y="177.64" width="6.41" height="2.34" style="fill: rgb(235, 235, 235); transform-origin: 122.555px 178.81px;" id="elstjy7sl5el" class="animable"></rect><rect x="119.35" y="183.9" width="6.41" height="2.34" style="fill: rgb(235, 235, 235); transform-origin: 122.555px 185.07px;" id="el5da9s80lvzq" class="animable"></rect><rect x="125.76" y="190.17" width="6.41" height="2.34" style="fill: rgb(166, 166, 166); transform-origin: 128.965px 191.34px;" id="elaog8w0jctk" class="animable"></rect><rect x="125.76" y="196.44" width="6.41" height="2.34" style="fill: rgb(235, 235, 235); transform-origin: 128.965px 197.61px;" id="el5vzwxpf3g1u" class="animable"></rect><rect x="119.35" y="201.68" width="6.41" height="2.34" style="fill: rgb(235, 235, 235); transform-origin: 122.555px 202.85px;" id="el450tbvyp5a4" class="animable"></rect><rect x="130.43" y="201.68" width="73.53" height="2.34" style="fill: rgb(235, 235, 235); transform-origin: 167.195px 202.85px;" id="el0uuc4fm4cxmn" class="animable"></rect><rect x="125.76" y="207.95" width="6.41" height="2.34" style="fill: rgb(235, 235, 235); transform-origin: 128.965px 209.12px;" id="el2oc2tmlg2ky" class="animable"></rect><rect x="136.68" y="207.95" width="48.25" height="2.34" style="fill: rgb(166, 166, 166); transform-origin: 160.805px 209.12px;" id="el7nx3qwf3z5b" class="animable"></rect><rect x="130.43" y="226.75" width="46.09" height="2.34" style="fill: rgb(166, 166, 166); transform-origin: 153.475px 227.92px;" id="elcr3os61d7gu" class="animable"></rect><rect x="136.68" y="214.22" width="32.33" height="2.34" style="fill: rgb(4, 211, 97); transform-origin: 152.845px 215.39px;" id="elv0a31as21iq" class="animable"></rect><rect x="172.6" y="214.22" width="51.63" height="2.34" style="fill: rgb(166, 166, 166); transform-origin: 198.415px 215.39px;" id="el2x4kkxa1a8n" class="animable"></rect><rect x="130.43" y="233.01" width="61.63" height="2.34" style="fill: rgb(4, 211, 97); transform-origin: 161.245px 234.18px;" id="elio4dx3gljdd" class="animable"></rect><rect x="221.36" y="207.95" width="33.4" height="2.34" style="fill: rgb(4, 211, 97); transform-origin: 238.06px 209.12px;" id="elij9okxkfign" class="animable"></rect><rect x="187.96" y="207.95" width="30.75" height="2.34" style="fill: rgb(235, 235, 235); transform-origin: 203.335px 209.12px;" id="elhxly000i6hu" class="animable"></rect><rect x="226.66" y="214.22" width="20.75" height="2.34" style="fill: rgb(235, 235, 235); transform-origin: 237.035px 215.39px;" id="ely12divorku" class="animable"></rect><rect x="125.76" y="214.22" width="6.41" height="2.34" style="fill: rgb(235, 235, 235); transform-origin: 128.965px 215.39px;" id="eltch9k667g5" class="animable"></rect><rect x="119.35" y="220.48" width="6.41" height="2.34" style="fill: rgb(166, 166, 166); transform-origin: 122.555px 221.65px;" id="eltuz3iglj92k" class="animable"></rect><rect x="130.43" y="220.48" width="37.88" height="2.34" style="fill: rgb(235, 235, 235); transform-origin: 149.37px 221.65px;" id="eljthetq1ihk" class="animable"></rect><rect x="179.13" y="226.75" width="40.94" height="2.34" style="fill: rgb(235, 235, 235); transform-origin: 199.6px 227.92px;" id="eln1aut5t35z" class="animable"></rect><rect x="172.16" y="220.48" width="40.89" height="2.34" style="fill: rgb(4, 211, 97); transform-origin: 192.605px 221.65px;" id="elkqcwiqh8wle" class="animable"></rect><rect x="119.35" y="226.75" width="6.41" height="2.34" style="fill: rgb(235, 235, 235); transform-origin: 122.555px 227.92px;" id="el3hr4g5tpnrr" class="animable"></rect><path d="M123.31,146.41a.56.56,0,0,1,0,.79.57.57,0,0,1-.79,0l-2.47-2.51a.08.08,0,0,1,0-.05l0,0a.21.21,0,0,1,0-.07l0,0a.15.15,0,0,1,0-.06s0,0,0,0v-.06s0,0,0-.06,0,0,0,0v-.06s0,0,0,0a.2.2,0,0,1,0-.07h0s0-.07,0-.08,0,0,0,0a.12.12,0,0,1,.06-.06l2.47-2.51a.57.57,0,0,1,.79,0,.56.56,0,0,1,0,.79l-2.08,2.1Z" style="fill: rgb(4, 211, 97); transform-origin: 121.79px 144.405px;" id="elori0dlqkau" class="animable"></path><path d="M125.55,146.69l2.16-5.13a.48.48,0,1,1,.89.37l-2.16,5.14a.49.49,0,0,1-.45.29.35.35,0,0,1-.17,0A.47.47,0,0,1,125.55,146.69Z" style="fill: rgb(4, 211, 97); transform-origin: 127.065px 144.317px;" id="eluxj9rxzf5bm" class="animable"></path><path d="M132.85,144.62h0a.17.17,0,0,1-.06.06l-2.47,2.51a.61.61,0,0,1-.4.16.57.57,0,0,1-.39-.16.56.56,0,0,1,0-.79l2.08-2.11-2.08-2.1a.56.56,0,0,1,0-.79.57.57,0,0,1,.79,0l2.47,2.51a.12.12,0,0,1,.06.06s0,0,0,0a.35.35,0,0,1,.05.08h0a.26.26,0,0,0,0,.08s0,0,0,0v.06s0,0,0,0v.12s0,0,0,0a.41.41,0,0,0,0,.08v0Z" style="fill: rgb(4, 211, 97); transform-origin: 131.133px 144.295px;" id="elpnini7feeyj" class="animable"></path><rect x="223.43" y="97.65" width="67.7" height="25.07" style="fill: rgb(69, 90, 100); transform-origin: 257.28px 110.185px;" id="elxyij3usb04i" class="animable"></rect><path d="M233.2,115.38V104.26a1,1,0,0,1,1-1,1,1,0,0,1,1.06,1v4.52h4.88v-4.52a1,1,0,0,1,1-1,1,1,0,0,1,1.06,1v11.12a1,1,0,0,1-1.06,1,1,1,0,0,1-1-1v-4.52h-4.88v4.52a1,1,0,0,1-1.06,1A1,1,0,0,1,233.2,115.38Z" style="fill: rgb(255, 255, 255); transform-origin: 237.7px 109.82px;" id="el6bz4bkbcimr" class="animable"></path><path d="M254.62,105.32h-3v10.06a1,1,0,1,1-2.08,0V105.32h-3a1,1,0,0,1-1-1.06,1,1,0,0,1,1-1h8a1,1,0,0,1,1,1A1.06,1.06,0,0,1,254.62,105.32Z" style="fill: rgb(255, 255, 255); transform-origin: 250.539px 109.84px;" id="elzukphwqylya" class="animable"></path><path d="M270.11,104.26v11.12a1.07,1.07,0,0,1-1.06,1,1,1,0,0,1-1-1v-7.93l-2.72,3.77a1,1,0,0,1-.84.43h0a1.08,1.08,0,0,1-.87-.43l-2.69-3.77v7.93a1,1,0,0,1-2.09,0V104.26a1,1,0,0,1,1-1h.06a1,1,0,0,1,.83.43l3.75,5.2,3.75-5.2a1,1,0,0,1,.85-.43h0A1.07,1.07,0,0,1,270.11,104.26Z" style="fill: rgb(255, 255, 255); transform-origin: 264.475px 109.842px;" id="elconlo1q6lwk" class="animable"></path><path d="M274.67,115.38V104.26a1,1,0,0,1,1-1,1,1,0,0,1,1.05,1v10.06h5.11a1.05,1.05,0,0,1,0,2.1h-6.16A1,1,0,0,1,274.67,115.38Z" style="fill: rgb(255, 255, 255); transform-origin: 278.775px 109.839px;" id="elkcvgdr7mcyi" class="animable"></path><rect x="54.43" y="193.41" width="55.79" height="25.07" style="fill: rgb(69, 90, 100); transform-origin: 82.325px 205.945px;" id="el1hplv0qisny" class="animable"></rect><path d="M71,207.06H68.71v4.09a1,1,0,0,1-2.09,0V200a1,1,0,0,1,1-1H71a4,4,0,1,1,0,8.06ZM68.71,205H71a1.94,1.94,0,1,0,0-3.88H68.71Z" style="fill: rgb(255, 255, 255); transform-origin: 70.825px 205.597px;" id="el5mup96in1fq" class="animable"></path><path d="M77.6,211.15V200a1,1,0,0,1,1-1,1,1,0,0,1,1,1v4.52h4.88V200a1,1,0,0,1,1-1,1,1,0,0,1,1.06,1v11.12a1,1,0,0,1-1.06,1,1,1,0,0,1-1-1v-4.52H79.69v4.52a1,1,0,0,1-1,1A1,1,0,0,1,77.6,211.15Z" style="fill: rgb(255, 255, 255); transform-origin: 82.07px 205.561px;" id="elti9gj2jybio" class="animable"></path><path d="M95.37,207.06H93.05v4.09a1,1,0,0,1-2.09,0V200a1,1,0,0,1,1-1h3.37a4,4,0,1,1,0,8.06ZM93.05,205h2.32a1.94,1.94,0,1,0,0-3.88H93.05Z" style="fill: rgb(255, 255, 255); transform-origin: 95.16px 205.597px;" id="el92ujwpti91" class="animable"></path><polygon points="274.67 191.78 278.9 202 274.67 203.75 270.42 193.46 263.43 198.88 263.43 170.09 283.59 190.45 274.67 191.78" style="fill: rgb(38, 50, 56); transform-origin: 273.51px 186.92px;" id="el56st6yecxsg" class="animable"></polygon><path d="M263.43,167a3.94,3.94,0,0,1-.26-1.45,3.71,3.71,0,0,1,.26-1.45,3.7,3.7,0,0,1,.25,1.45A3.92,3.92,0,0,1,263.43,167Z" style="fill: rgb(38, 50, 56); transform-origin: 263.425px 165.55px;" id="elnxn1n7yr5e" class="animable"></path><path d="M260.93,168a4,4,0,0,1-1.2-.84,3.6,3.6,0,0,1-.84-1.21,3.84,3.84,0,0,1,1.2.85A3.56,3.56,0,0,1,260.93,168Z" style="fill: rgb(38, 50, 56); transform-origin: 259.91px 166.975px;" id="elja5zadsaceh" class="animable"></path><path d="M259.9,170.47a4.15,4.15,0,0,1-2.89,0,4.3,4.3,0,0,1,2.89,0Z" style="fill: rgb(38, 50, 56); transform-origin: 258.455px 170.475px;" id="elmmqff84nkb" class="animable"></path><path d="M260.93,173a3.56,3.56,0,0,1-.84,1.2,3.84,3.84,0,0,1-1.2.85,3.6,3.6,0,0,1,.84-1.21A4,4,0,0,1,260.93,173Z" style="fill: rgb(38, 50, 56); transform-origin: 259.91px 174.025px;" id="elri9nhi2poz" class="animable"></path><path d="M267,170.47a4.33,4.33,0,0,1,2.9,0,4.17,4.17,0,0,1-2.9,0Z" style="fill: rgb(38, 50, 56); transform-origin: 268.45px 170.475px;" id="el3t3gow58r19" class="animable"></path><path d="M265.92,168a3.86,3.86,0,0,1,.84-1.2,3.77,3.77,0,0,1,1.21-.85,4.15,4.15,0,0,1-2.05,2Z" style="fill: rgb(38, 50, 56); transform-origin: 266.945px 166.975px;" id="elqnh0kfb287" class="animable"></path></g><g id="freepik--Character--inject-13" class="animable" style="transform-origin: 289.82px 299.472px;"><path d="M339.37,290.42C331.66,324,316.05,366.51,304,375.09c-9.72,6.92-60.75,19.1-63.59,19.41-7.05.71-21-49.05-13.66-51.07,9.21-2.55,52.93-3.91,55.42-6.46s18.49-24.22,36.51-49.19C331.1,270.53,344.15,269.59,339.37,290.42Z" style="fill: rgb(221, 106, 87); transform-origin: 282.528px 334.66px;" id="elu7aasyyntvq" class="animable"></path><path d="M246.05,391.77c-.84.42-12.75,6.41-20.12,8.55-5.49,1.59-21.44,5.75-23.79-.12-1.61-4,7.47-7.56,13.84-10.22,3.36-1.39,7.5-4.91,6.51-7.06-1.73-3.78-10.37,0-16.05,3.31-11,6.39-25.63,17.88-32.34,12.3-2.53-2.1.41-5.94,4.72-9.7-7,4.38-14.45,8-17.36,5.75-1.66-1.27-1.74-3-.81-5-2.16.7-4.07.56-5.4-.84-2.27-2.38-1.17-5.89,1.32-9.49a2.71,2.71,0,0,1-2.06-1.36c-4.82-7.34,19.27-28.41,27.61-30.38,24.51-5.83,50.58-3.7,50.58-3.7C242.33,351.5,246.07,391.75,246.05,391.77Z" style="fill: rgb(221, 106, 87); transform-origin: 199.964px 373.335px;" id="el0roxyre2fy2j" class="animable"></path><path d="M210,369.2a41.48,41.48,0,0,0-16.35,6.29c-6.22,4.11-10.34,8.91-15.55,13.74a.15.15,0,0,0,.19.22c2.48-2.3,12.78-10.94,15.44-12.9A39.57,39.57,0,0,1,210,369.3C210.09,369.29,210.07,369.19,210,369.2Z" style="fill: rgb(38, 50, 56); transform-origin: 194.067px 379.333px;" id="elt5gfn5bpaaj" class="animable"></path><path d="M205.44,358.8c-6.44,1.76-13,3.54-19,6.59-6.55,3.33-11.67,8.77-16.7,14q-4.54,4.71-8.86,9.63c-.12.13.06.35.19.21q7.66-8.1,15.81-15.74a52.51,52.51,0,0,1,17.35-10.94c3.69-1.4,7.47-2.52,11.25-3.64C205.53,358.89,205.51,358.78,205.44,358.8Z" style="fill: rgb(38, 50, 56); transform-origin: 183.174px 374.036px;" id="elyk7pcpcvom" class="animable"></path><path d="M198.56,349.7c-6.26,1.29-11.72,2.39-17.27,5.74-7.33,4.44-14.42,11.92-16.9,14.58-2.75,2.93-5.39,6-8,9-.11.12.11.31.22.18a209,209,0,0,1,19.09-18.91,41.55,41.55,0,0,1,10.68-6.94,73.46,73.46,0,0,1,12.18-3.61S198.58,349.7,198.56,349.7Z" style="fill: rgb(38, 50, 56); transform-origin: 177.464px 364.472px;" id="elr292ormwzd" class="animable"></path><path d="M282.54,332.07l47-2s8.54-23.31,11.68-44-14.49-13.27-31.94,9S282.54,332.07,282.54,332.07Z" style="fill: rgb(4, 211, 97); transform-origin: 312.063px 302.976px;" id="el6b7l51pf04a" class="animable"></path><path d="M297.93,318c.32-.09.64-.12,1-.19a1.91,1.91,0,0,1,2.32,1.86,1.49,1.49,0,0,0,.69,1.29,1.72,1.72,0,0,0,.79.27c.32.06.64.1,1,.19-.32.09-.64.13-1,.2a1.82,1.82,0,0,1-1.07-.11,2,2,0,0,1-1.2-1.82,1.46,1.46,0,0,0-.73-1.25,1.75,1.75,0,0,0-.8-.24C298.57,318.14,298.25,318.1,297.93,318ZM331,289.44a1.89,1.89,0,0,1,.81.25,1.48,1.48,0,0,1,.73,1.25,2,2,0,0,0,1.2,1.82,1.81,1.81,0,0,0,1.07.1c.32-.06.64-.1,1-.19-.32-.09-.64-.13-1-.19a1.68,1.68,0,0,1-.79-.27,1.52,1.52,0,0,1-.69-1.29,2,2,0,0,0-1.26-1.79,2,2,0,0,0-1.07-.07c-.32.06-.64.1-.95.19C330.37,289.34,330.69,289.38,331,289.44Zm1.2,18.33a1.81,1.81,0,0,1-.75.39,1.45,1.45,0,0,1-1.39-.36,2,2,0,0,0-2.14-.45,1.9,1.9,0,0,0-.83.69c-.18.27-.38.52-.54.81.29-.16.54-.36.81-.54a1.87,1.87,0,0,1,.75-.37,1.51,1.51,0,0,1,1.4.43,1.92,1.92,0,0,0,3-.33c.18-.27.38-.53.54-.82C332.73,307.39,332.48,307.59,332.21,307.77Zm-12.78-21.38a2,2,0,0,1-.75.4,1.5,1.5,0,0,1-1.4-.37l-.25-.22c-.19.19-.37.38-.55.58a1.26,1.26,0,0,1,.26.21,2,2,0,0,0,2.16.38,1.92,1.92,0,0,0,.8-.71c.18-.27.38-.52.54-.81C320,286,319.7,286.21,319.43,286.39ZM314.11,304a1.93,1.93,0,0,1-.24.81,1.5,1.5,0,0,1-1.25.73,2,2,0,0,0-1.83,1.2,1.87,1.87,0,0,0-.1,1.06c.07.32.1.64.19,1,.09-.32.13-.64.2-1a1.89,1.89,0,0,1,.26-.79,1.51,1.51,0,0,1,1.29-.68,2,2,0,0,0,1.8-1.26,2.09,2.09,0,0,0,.07-1.07c-.07-.32-.11-.64-.2-1C314.21,303.36,314.18,303.68,314.11,304Zm13.46,17.91a1.8,1.8,0,0,1-.24.81,1.48,1.48,0,0,1-1.25.73,2,2,0,0,0-1.82,1.19,1.83,1.83,0,0,0-.11,1.07c.07.32.11.64.2,1,.09-.32.13-.64.19-1a1.77,1.77,0,0,1,.27-.79,1.49,1.49,0,0,1,1.29-.68,2,2,0,0,0,1.79-1.26,2,2,0,0,0,.07-1.07c-.06-.32-.1-.64-.19-1C327.68,321.27,327.64,321.59,327.57,321.91Z" style="fill: rgb(255, 255, 255); transform-origin: 316.87px 306.28px;" id="elaxxdqnvu71s" class="animable"></path><path d="M331.17,319.87c-10.17-.26-20.37.19-30.54.84q-4.32.29-8.62.76c-.08,0-.09.13,0,.13,5.08,0,10.16-.17,15.24-.32s10.2-.36,15.29-.65c2.88-.17,5.75-.34,8.62-.57C331.29,320.05,331.3,319.87,331.17,319.87Z" style="fill: rgb(38, 50, 56); transform-origin: 311.604px 320.698px;" id="el2j8xgwyilfi" class="animable"></path><path d="M295.73,407.23h120c1.32-2.42-18.36-107.57-58.84-137.18-9-6.56-24.91-2.34-29.34,4.05C305.31,306.2,295.73,407.23,295.73,407.23Z" style="fill: rgb(4, 211, 97); transform-origin: 355.761px 336.992px;" id="elgbkypx4apv" class="animable"></path><path d="M346.64,318c.32-.09.64-.12,1-.19a1.91,1.91,0,0,1,2.32,1.86,1.49,1.49,0,0,0,.69,1.29,1.77,1.77,0,0,0,.79.27c.32.06.64.1,1,.19-.32.09-.64.13-1,.2a1.83,1.83,0,0,1-1.07-.11,2,2,0,0,1-1.2-1.82,1.46,1.46,0,0,0-.73-1.25,1.72,1.72,0,0,0-.8-.24C347.28,318.14,347,318.1,346.64,318Zm18.65,63.47a1.84,1.84,0,0,1,.8.25,1.45,1.45,0,0,1,.73,1.24,2,2,0,0,0,1.2,1.83,1.9,1.9,0,0,0,1.07.1c.32-.06.64-.1,1-.19-.32-.09-.64-.13-1-.2a1.65,1.65,0,0,1-.79-.26,1.52,1.52,0,0,1-.69-1.29,1.94,1.94,0,0,0-1.26-1.79,1.86,1.86,0,0,0-1.06-.07c-.32.06-.64.1-1,.19C364.65,381.38,365,381.42,365.29,381.48Zm22-59.85a1.75,1.75,0,0,1,.8.24,1.46,1.46,0,0,1,.73,1.25,2,2,0,0,0,1.2,1.82,1.82,1.82,0,0,0,1.07.11c.32-.07.64-.11,1-.2-.32-.09-.64-.13-1-.19a1.72,1.72,0,0,1-.79-.27,1.49,1.49,0,0,1-.69-1.29,1.91,1.91,0,0,0-2.32-1.86c-.32.07-.64.1-1,.19C386.67,321.52,387,321.56,387.31,321.63ZM331,289.44a1.89,1.89,0,0,1,.81.25,1.48,1.48,0,0,1,.73,1.25,2,2,0,0,0,1.2,1.82,1.81,1.81,0,0,0,1.07.1c.32-.06.64-.1,1-.19-.32-.09-.64-.13-1-.19a1.68,1.68,0,0,1-.79-.27,1.52,1.52,0,0,1-.69-1.29,2,2,0,0,0-1.26-1.79,2,2,0,0,0-1.07-.07c-.32.06-.64.1-.95.19C330.37,289.34,330.69,289.38,331,289.44Zm34.65-.72a1.93,1.93,0,0,1,.81.24,1.5,1.5,0,0,1,.73,1.25,2,2,0,0,0,1.2,1.83,1.9,1.9,0,0,0,1.07.1c.31-.07.63-.11.95-.19-.32-.09-.64-.13-.95-.2a1.89,1.89,0,0,1-.8-.26,1.51,1.51,0,0,1-.68-1.29,2,2,0,0,0-1.26-1.8,2,2,0,0,0-1.07-.07c-.32.07-.64.11-1,.2C365,288.61,365.34,288.65,365.66,288.72Zm-43.15,56a1.93,1.93,0,0,1,.81.24,1.49,1.49,0,0,1,.72,1.25,2,2,0,0,0,1.2,1.83,1.9,1.9,0,0,0,1.07.1c.32-.06.64-.1,1-.19-.32-.09-.64-.13-1-.2a1.76,1.76,0,0,1-.79-.26,1.52,1.52,0,0,1-.69-1.29,1.93,1.93,0,0,0-1.26-1.79,1.85,1.85,0,0,0-1.06-.07c-.32.06-.64.1-1,.19C321.87,344.58,322.19,344.62,322.51,344.68Zm37.78,58a1.89,1.89,0,0,1,.81.24,1.5,1.5,0,0,1,.73,1.25A2,2,0,0,0,363,406a1.9,1.9,0,0,0,1.07.1c.32-.07.64-.11,1-.2-.32-.09-.64-.12-1-.19a1.68,1.68,0,0,1-.79-.27,1.49,1.49,0,0,1-.69-1.28,1.92,1.92,0,0,0-2.33-1.87c-.32.07-.63.11-1,.2C359.66,402.55,360,402.59,360.29,402.66Zm-18.6-31.15a1.8,1.8,0,0,1,.81.24,1.45,1.45,0,0,1,.72,1.25,2,2,0,0,0,1.2,1.82,1.83,1.83,0,0,0,1.07.11c.32-.07.64-.11,1-.2-.32-.09-.64-.13-1-.19a1.77,1.77,0,0,1-.79-.27A1.46,1.46,0,0,1,344,373a1.92,1.92,0,0,0-2.33-1.86c-.32.06-.64.1-1,.19C341.05,371.4,341.37,371.44,341.69,371.51Zm-42.6,31.93a1.77,1.77,0,0,1-.79-.27,1.46,1.46,0,0,1-.68-1.29,2,2,0,0,0-1.14-1.73c0,.26-.06.5-.08.74a1.38,1.38,0,0,1,.42,1,2,2,0,0,0,1.2,1.82,1.83,1.83,0,0,0,1.07.11c.32-.07.64-.11,1-.2C299.73,403.54,299.41,403.5,299.09,403.44Zm8.18-26.27a1.8,1.8,0,0,1,.81.24,1.48,1.48,0,0,1,.73,1.25,2,2,0,0,0,1.2,1.82,1.82,1.82,0,0,0,1.07.11c.32-.07.63-.11.95-.2-.32-.09-.63-.13-.95-.19a1.68,1.68,0,0,1-.79-.27,1.47,1.47,0,0,1-.69-1.29,2,2,0,0,0-1.26-1.79,2,2,0,0,0-1.07-.07c-.32.07-.64.1-1,.19C306.63,377.06,307,377.1,307.27,377.17Zm50.26-31.73a1.93,1.93,0,0,1,.81.25,1.48,1.48,0,0,1,.73,1.25,2,2,0,0,0,1.2,1.82,1.79,1.79,0,0,0,1.06.1c.32-.06.64-.1,1-.19-.32-.09-.64-.13-1-.19a1.77,1.77,0,0,1-.79-.27,1.51,1.51,0,0,1-.68-1.29,2,2,0,0,0-1.26-1.79,2,2,0,0,0-1.07-.07c-.32.06-.64.1-1,.19C356.89,345.34,357.21,345.38,357.53,345.44Zm44,42.66a1.88,1.88,0,0,1,.8.24,1.48,1.48,0,0,1,.73,1.25,2,2,0,0,0,1.2,1.83,1.9,1.9,0,0,0,1.07.1c.32-.07.64-.11,1-.2-.32-.09-.64-.12-1-.19a1.72,1.72,0,0,1-.79-.27,1.49,1.49,0,0,1-.69-1.28,1.91,1.91,0,0,0-2.32-1.87c-.32.07-.64.11-1,.2C400.91,388,401.23,388,401.55,388.1Zm-17.48-26a1.89,1.89,0,0,1,.81.24,1.5,1.5,0,0,1,.73,1.25,2,2,0,0,0,1.2,1.83,1.9,1.9,0,0,0,1.07.1c.32-.07.64-.1,1-.19-.32-.09-.64-.13-1-.2a1.68,1.68,0,0,1-.79-.26,1.52,1.52,0,0,1-.69-1.29,2,2,0,0,0-1.26-1.79,2,2,0,0,0-1.07-.08c-.32.07-.63.11-.95.2C383.44,362,383.75,362,384.07,362.06Zm-51.86-54.29a1.81,1.81,0,0,1-.75.39,1.45,1.45,0,0,1-1.39-.36,2,2,0,0,0-2.14-.45,1.9,1.9,0,0,0-.83.69c-.18.27-.38.52-.54.81.29-.16.54-.36.81-.54a1.87,1.87,0,0,1,.75-.37,1.51,1.51,0,0,1,1.4.43,1.92,1.92,0,0,0,3-.33c.18-.27.38-.53.54-.82C332.73,307.39,332.48,307.59,332.21,307.77ZM383.92,345a1.86,1.86,0,0,1-.74.4,1.5,1.5,0,0,1-1.4-.37,2,2,0,0,0-2.13-.44,1.88,1.88,0,0,0-.83.68c-.18.27-.38.52-.54.81.29-.16.54-.36.81-.54a1.81,1.81,0,0,1,.75-.37,1.49,1.49,0,0,1,1.39.43,1.93,1.93,0,0,0,3-.33c.18-.27.38-.52.54-.81C384.45,344.6,384.2,344.8,383.92,345Zm-32.27-69.29a1.87,1.87,0,0,1-.74.4,1.45,1.45,0,0,1-1.4-.37,2,2,0,0,0-2.14-.44,1.88,1.88,0,0,0-.83.68c-.18.28-.38.53-.54.82.29-.16.55-.36.82-.54a1.78,1.78,0,0,1,.74-.37,1.52,1.52,0,0,1,1.4.42,1.91,1.91,0,0,0,3-.32c.18-.28.38-.53.54-.82C352.18,275.32,351.92,275.51,351.65,275.69ZM351,296.22a1.89,1.89,0,0,1-.25.8,1.46,1.46,0,0,1-1.25.73,2,2,0,0,0-1.82,1.2,1.9,1.9,0,0,0-.11,1.07c.07.32.11.64.2,1,.09-.32.13-.64.19-1a1.72,1.72,0,0,1,.27-.79,1.52,1.52,0,0,1,1.29-.69,1.91,1.91,0,0,0,1.86-2.32c-.06-.32-.1-.64-.19-1C351.12,295.58,351.08,295.9,351,296.22Zm-7.62,56.22a1.89,1.89,0,0,1-.25.81,1.48,1.48,0,0,1-1.25.73,2,2,0,0,0-1.82,1.2,1.9,1.9,0,0,0-.1,1.07c.06.32.1.64.19,1,.09-.32.13-.64.2-1a1.58,1.58,0,0,1,.26-.79,1.52,1.52,0,0,1,1.29-.69,2,2,0,0,0,1.79-1.26,1.89,1.89,0,0,0,.07-1.07c-.06-.31-.1-.63-.19-.95C343.5,351.81,343.46,352.13,343.4,352.44Zm39.9-49h-.16a2,2,0,0,0-1.83,1.2,1.9,1.9,0,0,0-.1,1.07c.06.32.1.64.19,1,.09-.32.13-.64.2-1a1.72,1.72,0,0,1,.26-.79,1.52,1.52,0,0,1,1.29-.69,1.54,1.54,0,0,0,.52-.09ZM383,394.28a1.8,1.8,0,0,1-.24.81,1.48,1.48,0,0,1-1.25.73,2,2,0,0,0-1.82,1.2,1.9,1.9,0,0,0-.11,1.07c.07.32.11.64.2,1,.09-.31.13-.63.19-1a1.68,1.68,0,0,1,.27-.79,1.47,1.47,0,0,1,1.29-.69,2,2,0,0,0,1.79-1.26,2,2,0,0,0,.07-1.07c-.06-.32-.1-.64-.19-1C383.13,393.64,383.09,394,383,394.28Zm17.17-51a.3.3,0,0,1,0,.08,1.46,1.46,0,0,1-1.25.73,2,2,0,0,0-1.82,1.2,1.83,1.83,0,0,0-.11,1.07c.07.32.11.64.2,1,.09-.32.13-.64.19-1a1.77,1.77,0,0,1,.27-.79,1.49,1.49,0,0,1,1.29-.69,2,2,0,0,0,1.54-.79h0ZM312.4,354.46a1.84,1.84,0,0,1-.24.8,1.48,1.48,0,0,1-1.25.73,2,2,0,0,0-1.83,1.2,1.9,1.9,0,0,0-.1,1.07c.07.32.1.64.19,1,.09-.32.13-.64.2-1a1.84,1.84,0,0,1,.26-.79,1.52,1.52,0,0,1,1.29-.69,2,2,0,0,0,1.8-1.26,2.05,2.05,0,0,0,.07-1.06c-.07-.32-.11-.64-.2-1C312.5,353.82,312.47,354.14,312.4,354.46Zm2.11-50.39-.51,1.67a1.83,1.83,0,0,0,.43-.67A2,2,0,0,0,314.51,304.07Zm18-32.87a1.89,1.89,0,0,1-.25.81,1.48,1.48,0,0,1-1.25.73,2,2,0,0,0-1.82,1.2,1.9,1.9,0,0,0-.11,1.07c.07.32.11.64.2,1,.09-.32.13-.64.19-1a1.68,1.68,0,0,1,.27-.79,1.52,1.52,0,0,1,1.29-.69,2,2,0,0,0,1.79-1.26,2,2,0,0,0,.07-1.07c-.06-.31-.1-.63-.19-.95C332.62,270.57,332.58,270.89,332.52,271.2Zm-4.95,50.71a1.8,1.8,0,0,1-.24.81,1.48,1.48,0,0,1-1.25.73,2,2,0,0,0-1.82,1.19,1.83,1.83,0,0,0-.11,1.07c.07.32.11.64.2,1,.09-.32.13-.64.19-1a1.77,1.77,0,0,1,.27-.79,1.49,1.49,0,0,1,1.29-.68,2,2,0,0,0,1.79-1.26,2,2,0,0,0,.07-1.07c-.06-.32-.1-.64-.19-1C327.68,321.27,327.64,321.59,327.57,321.91Zm44.37,6.82a1.84,1.84,0,0,1-.24.8,1.48,1.48,0,0,1-1.25.73,2,2,0,0,0-1.83,1.2,1.9,1.9,0,0,0-.1,1.07c.07.32.1.64.19,1,.09-.32.13-.64.2-1a1.89,1.89,0,0,1,.26-.79,1.52,1.52,0,0,1,1.29-.69,2,2,0,0,0,1.8-1.26,2.05,2.05,0,0,0,.07-1.06c-.07-.32-.11-.64-.2-1C372,328.09,372,328.41,371.94,328.73Zm-41,56.94a1.84,1.84,0,0,1-.25.8,1.46,1.46,0,0,1-1.25.73,2,2,0,0,0-1.82,1.2,1.82,1.82,0,0,0-.1,1.07c.06.32.1.64.19,1,.09-.32.13-.64.19-1a1.77,1.77,0,0,1,.27-.79,1.52,1.52,0,0,1,1.29-.69,1.91,1.91,0,0,0,1.86-2.32c-.06-.32-.1-.64-.19-1C331,385,331,385.35,330.94,385.67Zm34.41-74.54a1.86,1.86,0,0,1,.74-.4,1.5,1.5,0,0,1,1.4.37,2,2,0,0,0,2.13.45,1.9,1.9,0,0,0,.83-.69c.18-.27.38-.52.54-.81-.29.16-.54.36-.81.54a1.81,1.81,0,0,1-.75.37,1.49,1.49,0,0,1-1.39-.43,1.93,1.93,0,0,0-3,.33c-.18.27-.38.52-.54.81C364.82,311.51,365.07,311.31,365.35,311.13Zm-25.89,23.44a1.81,1.81,0,0,1,.75-.39,1.47,1.47,0,0,1,1.4.36,2,2,0,0,0,2.13.45,1.9,1.9,0,0,0,.83-.69c.18-.27.38-.52.54-.81-.29.16-.54.36-.81.54a1.81,1.81,0,0,1-.75.37,1.52,1.52,0,0,1-1.4-.43,1.92,1.92,0,0,0-3,.33c-.18.27-.38.53-.54.82C338.94,335,339.19,334.75,339.46,334.57Zm-17.53,34.54a2,2,0,0,1,.74-.4,1.5,1.5,0,0,1,1.4.37,2,2,0,0,0,2.14.44,1.88,1.88,0,0,0,.83-.68c.18-.27.38-.53.54-.82-.29.17-.54.36-.82.54a1.57,1.57,0,0,1-.74.37,1.48,1.48,0,0,1-1.4-.42,2,2,0,0,0-2.16-.38,1.92,1.92,0,0,0-.8.71c-.18.27-.38.52-.54.81C321.41,369.49,321.66,369.29,321.93,369.11ZM329.51,405a1.84,1.84,0,0,1,.74-.39,1.47,1.47,0,0,1,1.4.36,2,2,0,0,0,2.14.45,1.9,1.9,0,0,0,.83-.69c.18-.27.38-.52.54-.81-.29.16-.54.36-.82.54a1.78,1.78,0,0,1-.74.37,1.5,1.5,0,0,1-1.4-.43,1.92,1.92,0,0,0-3,.33c-.18.27-.38.53-.54.81C329,405.37,329.24,405.17,329.51,405Zm33.93-39.43a1.86,1.86,0,0,1,.74-.4,1.5,1.5,0,0,1,1.4.37,2,2,0,0,0,2.14.44,1.85,1.85,0,0,0,.82-.68c.18-.27.38-.53.55-.82-.29.17-.55.36-.82.54a1.6,1.6,0,0,1-.75.37,1.46,1.46,0,0,1-1.39-.42,2,2,0,0,0-2.16-.38,1.89,1.89,0,0,0-.81.71c-.18.27-.37.52-.54.81C362.91,365.94,363.17,365.74,363.44,365.56Zm23.35,14.29a2,2,0,0,1,.74-.4,1.5,1.5,0,0,1,1.4.37,2,2,0,0,0,2.14.44,1.88,1.88,0,0,0,.83-.68c.18-.27.38-.52.54-.81-.29.16-.54.36-.82.54a1.78,1.78,0,0,1-.74.37,1.5,1.5,0,0,1-1.4-.43,1.92,1.92,0,0,0-3,.33c-.18.27-.38.52-.54.81C386.26,380.23,386.52,380,386.79,379.85ZM347.51,390.7a1.93,1.93,0,0,1,.74-.4,1.5,1.5,0,0,1,1.4.37,2,2,0,0,0,2.14.44,1.88,1.88,0,0,0,.83-.68c.18-.27.37-.53.54-.82-.29.17-.55.37-.82.55a1.76,1.76,0,0,1-.75.37,1.49,1.49,0,0,1-1.39-.43,2,2,0,0,0-2.16-.38,2,2,0,0,0-.8.71c-.18.27-.38.52-.55.81C347,391.08,347.24,390.88,347.51,390.7ZM398.17,405a1.84,1.84,0,0,1,.74-.39,1.47,1.47,0,0,1,1.4.36,2,2,0,0,0,2.14.45,1.9,1.9,0,0,0,.83-.69c.18-.27.38-.52.54-.81-.29.16-.54.36-.82.54a1.78,1.78,0,0,1-.74.37,1.51,1.51,0,0,1-1.4-.43,1.92,1.92,0,0,0-3,.33c-.18.27-.38.53-.54.81C397.65,405.37,397.9,405.17,398.17,405Zm9-38.84a1.46,1.46,0,0,1-.63-.38,1.92,1.92,0,0,0-3,.33c-.18.27-.38.52-.54.81.29-.16.54-.36.81-.54a2,2,0,0,1,.74-.4,1.5,1.5,0,0,1,1.4.37,2,2,0,0,0,1.39.59Zm-95.85,29.49a2,2,0,0,1,.74-.4,1.5,1.5,0,0,1,1.4.37,2,2,0,0,0,2.14.45,1.9,1.9,0,0,0,.83-.69c.18-.27.38-.52.54-.81-.29.16-.54.36-.82.54a1.78,1.78,0,0,1-.74.37,1.51,1.51,0,0,1-1.4-.43,1.92,1.92,0,0,0-3,.33c-.18.27-.38.53-.54.81C310.84,396,311.09,395.82,311.36,395.64Zm-2.89-60.25a1.75,1.75,0,0,1,.74-.4,1.45,1.45,0,0,1,1.4.37,2,2,0,0,0,2.14.44,1.85,1.85,0,0,0,.82-.68c.18-.28.38-.53.55-.82-.29.16-.55.36-.82.54a1.56,1.56,0,0,1-.75.37,1.48,1.48,0,0,1-1.39-.42,2,2,0,0,0-2.16-.38,1.94,1.94,0,0,0-.81.7c-.18.28-.37.53-.54.82C307.94,335.77,308.2,335.57,308.47,335.39Z" style="fill: rgb(255, 255, 255); transform-origin: 351.865px 338.193px;" id="el4l99ezqtnll" class="animable"></path><path d="M314.8,302.07q-1.65,6-3.2,12c.13-1.75.32-3.49.55-5.23,0-.1-.14-.15-.17,0a37.94,37.94,0,0,0-.71,6.55q-1.86,7.25-3.48,14.55c-2.05,9.33-3.88,18.74-5.4,28.17-.85,5.33-1.51,10.68-2.42,16,0,.1.14.14.16,0,.83-4.71,1.94-9.39,3-14.07s2-9.3,3-13.95c1.94-9.37,4-18.71,5.92-28.07,1.09-5.28,2.1-10.57,3.19-15.84A.2.2,0,0,0,314.8,302.07Z" style="fill: rgb(38, 50, 56); transform-origin: 307.608px 338.05px;" id="elzqxbgvj818" class="animable"></path><path d="M310.11,239.78c1.33,7.28-2.77,14.13-9.16,15.3s-12.64-3.79-14-11.07,2.76-14.14,9.15-15.3S308.78,232.5,310.11,239.78Z" style="fill: rgb(69, 90, 100); transform-origin: 298.525px 241.896px;" id="elwgg3zw29bbp" class="animable"></path><path d="M313.94,239.55c1.48,8.1-3.08,15.72-10.18,17s-14.07-4.21-15.55-12.31,3.08-15.72,10.18-17S312.46,231.45,313.94,239.55Z" style="fill: rgb(199, 199, 199); transform-origin: 301.075px 241.895px;" id="el4rlzhqrwqu6" class="animable"></path><path d="M334.21,296.71c7.24,0,16.45-13.36,19-23,.17-.66-7.88-23.33-9-28-.23-1-27.49,14.18-27.49,14.18s5.24,9.07,7.16,17.2C324.06,277.82,327.21,296.74,334.21,296.71Z" style="fill: rgb(221, 106, 87); transform-origin: 334.966px 271.186px;" id="elt9t3edi4nbc" class="animable"></path><path d="M327.25,278.86a16.44,16.44,0,0,1-2.89.53c-.12-.57-.22-1.05-.29-1.42a.11.11,0,0,0,0-.05.59.59,0,0,0,0-.13c0-.14-.05-.29-.09-.44a.29.29,0,0,0,0-.09l0-.12a48.47,48.47,0,0,0-1.64-5.36,84.89,84.89,0,0,0-4.46-9.91q-.21-.4-.39-.72l-.64-1.18,0,0h0l.72-.41,1-.53,0,0,.64-.35.79-.44.73-.4.14-.08,1-.52.22-.12.95-.52.5-.27,1.54-.84,1.18-.64,1-.54,3.42-1.84,1.1-.6,3.95-2.08.85-.44L337,249l.67-.35,1.44-.73.88-.44c.43-.22.83-.41,1.21-.59.19-.1.38-.18.55-.26.52-.25,1-.45,1.34-.6l.24-.1h0C343.67,253.85,343,274.64,327.25,278.86Z" style="fill: rgb(38, 50, 56); transform-origin: 330.119px 262.66px;" id="elu5xdk7cfvm" class="animable"></path><path d="M336.06,210.67c6.45,9.09,10.85,40.07,5.83,49-7.28,12.92-24.05,19.51-36.25,9.65-11.82-9.55-16.83-50-10.77-58.64C303.79,198,326.52,197.26,336.06,210.67Z" style="fill: rgb(221, 106, 87); transform-origin: 318.175px 237.48px;" id="elvm2jj329dfe" class="animable"></path><path d="M313,238c0-.09.17.07.18.16.24,2.09.87,4.45,2.86,4.87.06,0,.07.12,0,.12C313.64,243.19,312.84,240.05,313,238Z" style="fill: rgb(38, 50, 56); transform-origin: 314.535px 240.562px;" id="eliby179880rb" class="animable"></path><path d="M314.49,235.57c3.32-.74,4.57,6,1.49,6.64S311.71,236.2,314.49,235.57Z" style="fill: rgb(38, 50, 56); transform-origin: 315.334px 238.883px;" id="eldg7mfmbfxla" class="animable"></path><path d="M301.56,240.48c0-.08-.14.12-.13.21.46,2.06.63,4.49-1.12,5.53-.05,0,0,.14,0,.12C302.58,245.59,302.32,242.36,301.56,240.48Z" style="fill: rgb(38, 50, 56); transform-origin: 301.195px 243.402px;" id="el1rjy28vu6u2" class="animable"></path><path d="M299.31,238.66c-3.38.37-2.4,7.1.74,6.76S302.14,238.35,299.31,238.66Z" style="fill: rgb(38, 50, 56); transform-origin: 299.581px 242.041px;" id="elsk6fu4z464k" class="animable"></path><path d="M316.56,232a25.17,25.17,0,0,1-2.76-.43,4.48,4.48,0,0,1-2.74-1,1.46,1.46,0,0,1-.09-1.76,3.59,3.59,0,0,1,3.47-1,5.26,5.26,0,0,1,3.38,1.68A1.53,1.53,0,0,1,316.56,232Z" style="fill: rgb(38, 50, 56); transform-origin: 314.447px 229.852px;" id="el6cxxfnt9fjo" class="animable"></path><path d="M296.09,235.77a26.4,26.4,0,0,0,2.53-1.18,4.56,4.56,0,0,0,2.35-1.71,1.44,1.44,0,0,0-.41-1.71,3.56,3.56,0,0,0-3.61,0,5.16,5.16,0,0,0-2.78,2.56A1.53,1.53,0,0,0,296.09,235.77Z" style="fill: rgb(38, 50, 56); transform-origin: 297.572px 233.268px;" id="el2lbtet74hk5" class="animable"></path><path d="M319,256.77c-.4.58-.77,1.34-1.51,1.54a5.56,5.56,0,0,1-2.33-.1.07.07,0,0,0-.07.12,2.83,2.83,0,0,0,2.84.63,2.24,2.24,0,0,0,1.29-2.13C319.23,256.7,319.06,256.69,319,256.77Z" style="fill: rgb(38, 50, 56); transform-origin: 317.142px 257.912px;" id="elg4iq0ultzjg" class="animable"></path><path d="M315.67,251a7.18,7.18,0,0,1-4.13,4,8.92,8.92,0,0,1-2.51.59,2.89,2.89,0,0,1-.5,0,3.45,3.45,0,0,1-.46,0,.53.53,0,0,1-.51-.38v0a1.36,1.36,0,0,1,0-.21v0l0-.18c-.34-1.59-.64-4-.64-4-.53.4-3.25,2.29-3.36,1.45-.88-7-1.86-14.74-1.26-21.87a.2.2,0,0,1,.39,0c1.11,6.68,1,13.5,2.05,20.22a12.43,12.43,0,0,1,3.14-1.63c.24,0,.49,4.75.7,5.45l0,.08c2.74-.16,4.61-1.35,6.88-3.64C315.57,250.68,315.76,250.79,315.67,251Z" style="fill: rgb(38, 50, 56); transform-origin: 308.904px 242.923px;" id="el7ofx5fn8hjw" class="animable"></path><path d="M309.82,254.6a8.55,8.55,0,0,0,3.83,2,3.84,3.84,0,0,0,2.32-.29c1.57-.74,1.33-2.27.78-3.51a9,9,0,0,0-1.11-1.85A11,11,0,0,1,309.82,254.6Z" style="fill: rgb(38, 50, 56); transform-origin: 313.494px 253.808px;" id="elzu20ggqmncm" class="animable"></path><path d="M313.65,256.57a3.84,3.84,0,0,0,2.32-.29c1.57-.74,1.33-2.27.78-3.51C315,253.29,313.48,254.82,313.65,256.57Z" style="fill: rgb(255, 153, 186); transform-origin: 315.403px 254.703px;" id="elqnhlsyj5vp9" class="animable"></path><g id="ellkbnjm1cgp"><path d="M334.9,223.68c2.06,2.61,6.56,8.87,8.09,8.95-1.58-10.09-4.15-18.9-8.17-23.59a20.94,20.94,0,0,0-5.91-4.77C329.49,206.93,332.71,221,334.9,223.68Z" style="fill: rgb(38, 50, 56); opacity: 0.2; transform-origin: 335.95px 218.45px;" class="animable"></path></g><path d="M304.84,217.55a10,10,0,0,0,9.48,2.35,10.24,10.24,0,0,0,7.14-7,.08.08,0,0,1,.16,0,10.14,10.14,0,0,1-7.07,7.69,10.33,10.33,0,0,1-9.88-3A.12.12,0,0,1,304.84,217.55Z" style="fill: rgb(38, 50, 56); transform-origin: 313.145px 216.839px;" id="elsdqs3i29rff" class="animable"></path><path d="M312.38,191.78c5.79-.52,11.45,2.08,14,5.78a11.24,11.24,0,0,1,1.9,7.16c0,.1-.21.1-.21,0a12.35,12.35,0,0,0-7-10.44,15.89,15.89,0,0,0-14.18-.1A10,10,0,0,0,302,199.1c-.09.22-.54.13-.47-.09C302.66,195.22,307.14,192.26,312.38,191.78Z" style="fill: rgb(38, 50, 56); transform-origin: 314.918px 198.254px;" id="eluvmj7c7vnkc" class="animable"></path><path d="M280.25,208.08a12.8,12.8,0,0,1,4.66-7.46c3.29-2.59,7.34-2.72,11.35-2.76.11,0,.12.17,0,.17-3.42.05-6.89.3-9.82,2.24a12.55,12.55,0,0,0-5.11,6.74,12.29,12.29,0,0,0,6.76,14.59,12.46,12.46,0,0,0,9.89-.11c.12-.05.24.12.11.18a12.54,12.54,0,0,1-17.85-13.59Z" style="fill: rgb(38, 50, 56); transform-origin: 289.084px 210.407px;" id="ela8wr47a1bko" class="animable"></path><path d="M339.29,217.29s4.27-11-1-16.4c-3-3.08-11.55-1.63-11.55-1.63A15.64,15.64,0,0,0,316,193.84c-7.4-.81-15.48,4.41-15.48,4.41s-7.31-3.12-13.3,1.3c-8.34,6.16-5.62,19.65,3.89,23,6.69,2.33,14.61-4.27,14.61-4.27.84,0,9.89,4.11,15.4-4.18,0,0,5.73,4,10,.23A7.58,7.58,0,0,0,339.29,217.29Z" style="fill: rgb(38, 50, 56); transform-origin: 311.584px 208.401px;" id="elry464vaobh" class="animable"></path><path d="M317.34,247.11a9,9,0,0,1-9.56-8.45h0a9,9,0,1,1,11.77,8A8.91,8.91,0,0,1,317.34,247.11ZM309,238.58a7.81,7.81,0,1,0,7.32-8.28,8.07,8.07,0,0,0-1.91.36A7.84,7.84,0,0,0,309,238.58Z" style="fill: rgb(4, 211, 97); transform-origin: 316.763px 238.115px;" id="elkzk1fu98hes" class="animable"></path><path d="M298.63,250.72c-3.63.71-7.37-2.68-8.32-7.56a10.77,10.77,0,0,1,.65-6.56,5.63,5.63,0,0,1,9.45-1.85,10.78,10.78,0,0,1,3.08,5.82c.9,4.62-1,9-4.29,10A4.74,4.74,0,0,1,298.63,250.72Zm-6.57-13.61a9.52,9.52,0,0,0-.57,5.82c.83,4.22,3.93,7.19,6.91,6.61s4.73-4.5,3.91-8.73a9.65,9.65,0,0,0-2.72-5.18,4.82,4.82,0,0,0-4.2-1.43,2.36,2.36,0,0,0-.44.11A5,5,0,0,0,292.06,237.11Z" style="fill: rgb(4, 211, 97); transform-origin: 296.891px 241.861px;" id="elq5mxee54x" class="animable"></path><path d="M308.28,239.62l.59-1.05c-1.57-.87-5-1.78-6.68,1l1,.64C304.74,237.72,308.14,239.55,308.28,239.62Z" style="fill: rgb(4, 211, 97); transform-origin: 305.53px 238.956px;" id="eluh9kapv3fy" class="animable"></path><path d="M348.18,234.17l.95-.75c-.35-.44-3.5-4.3-6.23-4.21-2.54.09-18.12,4.68-18.78,4.88l.34,1.16c4.47-1.33,16.51-4.77,18.48-4.84C344.74,230.36,347.33,233.11,348.18,234.17Z" style="fill: rgb(4, 211, 97); transform-origin: 336.625px 232.229px;" id="elc8gdv8n2sxd" class="animable"></path><path d="M337.75,236.56S341.44,225,346.49,226s4.34,16.37-.14,19.83a5.39,5.39,0,0,1-7.76-.62Z" style="fill: rgb(221, 106, 87); transform-origin: 343.875px 236.566px;" id="elgv7t6hmfpgk" class="animable"></path><path d="M346.18,230.4c.08,0,.13.08.07.13-3.11,2.54-3.95,6.42-4.2,10.24.65-1.64,1.86-2.81,4-2.1.12,0,.07.21,0,.22a3.33,3.33,0,0,0-3.15,2.19,15.77,15.77,0,0,0-.79,3.34c-.07.37-.69.38-.68,0v-.09C339.91,239.8,341.46,232.37,346.18,230.4Z" style="fill: rgb(38, 50, 56); transform-origin: 343.572px 237.551px;" id="elpqbvrd6vbq" class="animable"></path><path d="M343.33,227.8s-.72-16.19-6.41-24.52c-6.34-9.28-23.84-15.49-36.36-5,0,0,18.18-4.73,30.09,6.45,5.47,5.14,7.37,24.12,7.37,24.12Z" style="fill: rgb(199, 199, 199); transform-origin: 321.945px 210.827px;" id="elsthujq3i3km" class="animable"></path><g id="el65tdhy63voe"><ellipse cx="342.21" cy="236.27" rx="13.08" ry="14.91" style="fill: rgb(199, 199, 199); transform-origin: 342.21px 236.27px; transform: rotate(-5.79deg);" class="animable"></ellipse></g><path d="M332.94,236.74c.75,7.37,6.59,12.81,13.05,12.15s11.09-7.16,10.35-14.52-6.59-12.8-13.06-12.15S332.19,229.38,332.94,236.74Z" style="fill: rgb(69, 90, 100); transform-origin: 344.639px 235.556px;" id="elyz8bofk34zi" class="animable"></path><path d="M372.29,280.44c19.38,20.76,65.49,98.66,50.54,113s-97.9-5-121.2-16.07c-6.94-3.3,19.4-46.52,27.55-47.53,6.78-.84,41.46,15,42.46,13,1.14-2.25-6.74-16.72-15.08-46.85C346.94,261.3,363.73,271.27,372.29,280.44Z" style="fill: rgb(221, 106, 87); transform-origin: 363.12px 335.118px;" id="elxy78col8h6i" class="animable"></path><path d="M294.74,315.91c-16.84-2.34-21.53-.36-34.69-9.89-8.64-6.25-16.34-3.42-11.42,6.52,8.07,16.25,29.17,23.84,37.24,24.37Z" style="fill: rgb(221, 106, 87); transform-origin: 270.915px 319.809px;" id="elpxcb145wa7" class="animable"></path><path d="M339.49,332.13s-18.93-10.51-36.63-14.79c-12.25-2.95-39.6-6.42-65.77,20.57-6.21,6.41-10.52,19.93,3.42,13.16,9.9-4.82,14.72-10.86,21-12.61,0,0-3.43,17.86,3.22,23.82a165,165,0,0,0,18.51,14.36,35.53,35.53,0,0,0,3-3.22s6.75,5,19.44,3.78Z" style="fill: rgb(221, 106, 87); transform-origin: 285.365px 346.377px;" id="elsg5sy4yekjf" class="animable"></path><path d="M290.72,316.39c-5.85,3.05-18.15,9.73-26.31,18.69-9.06,9.95-23.84,31.57-16.43,38.19,5.44,4.85,11.81-2.91,11.81-2.91s-4.22,10.22,1.65,13.53c5.35,3,9.91-3.28,9.91-3.28s-1.49,6.64,4.22,8.55c6.87,2.3,8.88-12,17.85-15.69C295.43,372.65,290.72,316.39,290.72,316.39Z" style="fill: rgb(221, 106, 87); transform-origin: 269.944px 352.899px;" id="ele83vkwc8e4" class="animable"></path><path d="M276.52,342.9c-5,3.78-14.27,15.28-16.82,27.19-.06.27.11.46.22.23A131.81,131.81,0,0,1,276.62,343C276.66,342.93,276.58,342.86,276.52,342.9Z" style="fill: rgb(38, 50, 56); transform-origin: 268.159px 356.656px;" id="el3vyb44exw99" class="animable"></path><path d="M286.31,352.34c-4,3.71-13,16-15.18,28.15-.05.27.14.45.24.21a142.09,142.09,0,0,1,15-28.28C286.45,352.36,286.36,352.3,286.31,352.34Z" style="fill: rgb(38, 50, 56); transform-origin: 278.762px 366.57px;" id="elubkoimo72v" class="animable"></path><path d="M261.5,338.35c-5.49,1.62-9.06,4.31-13.7,7.53a75.24,75.24,0,0,1-7.07,4.48c-2.24,1.21-5.53,3-7.92,1.14-1.32-1.05-1.3-3-1-4.48a12.1,12.1,0,0,1,2-4.75c.05-.07-.07-.16-.12-.09a16.37,16.37,0,0,0-2.27,4.06,7.28,7.28,0,0,0-.5,4.29c.81,3,4.38,3.42,6.9,2.59a24,24,0,0,0,4.33-2.09c1.33-.77,2.62-1.59,3.89-2.45,2.61-1.77,5.12-3.68,7.71-5.47a69.8,69.8,0,0,1,7.85-4.57A.1.1,0,0,0,261.5,338.35Z" style="fill: rgb(38, 50, 56); transform-origin: 246.226px 345.916px;" id="elz0rexkhjkts" class="animable"></path><path d="M250,357.67c1.42-3.13,9.11-16.17,11.61-19.19a.08.08,0,0,0-.11-.11c-4.28,4.06-11.16,14.83-12.76,18.29s-3.41,7.77-3.41,11.57c0,5.74,3.8,6.82,5.21,7.1a7.4,7.4,0,0,0,4.88-.79,15.14,15.14,0,0,0,4.43-4.16c.06-.08-.05-.19-.12-.11-2,2.26-5.29,4.49-8.4,4.08a5.2,5.2,0,0,1-3.55-1.91,6.77,6.77,0,0,1-.92-4.62A31.28,31.28,0,0,1,250,357.67Z" style="fill: rgb(38, 50, 56); transform-origin: 253.476px 356.904px;" id="el2lxm5hrpudr" class="animable"></path><path d="M271.13,380.49c-.8.68-2.44,3.06-5.05,3.57a5.91,5.91,0,0,1-5.38-1.2,7.45,7.45,0,0,1-2.07-5.22,48.24,48.24,0,0,1,1.2-7.22c0-.11-.11-.16-.14-.05a26.82,26.82,0,0,0-1.73,7.76,7.84,7.84,0,0,0,2.2,5.72,5.87,5.87,0,0,0,6,1.25c1-.38,4.25-2.45,5.18-4.49C271.37,380.56,271.17,380.46,271.13,380.49Z" style="fill: rgb(38, 50, 56); transform-origin: 264.649px 377.876px;" id="el7ze925g7k3i" class="animable"></path><path d="M292.88,372.44a14.42,14.42,0,0,0-2.43,2.05c-.81.78-1.59,1.59-2.34,2.41a32.44,32.44,0,0,0-4,5.43c-1.16,1.95-2.23,4.12-4.12,5.47a5.36,5.36,0,0,1-6.28.16,5.29,5.29,0,0,1-2-2.91,10.19,10.19,0,0,1-.36-3.92.08.08,0,1,0-.16,0,18.42,18.42,0,0,0-.28,3.55,6.17,6.17,0,0,0,1.12,3,6,6,0,0,0,5.86,2.19c2.4-.44,4.15-2.24,5.46-4.19,1.44-2.17,2.64-4.48,4.19-6.59.81-1.11,1.61-2.23,2.5-3.28s2-2.07,2.9-3.21C293.08,372.51,293,372.38,292.88,372.44Z" style="fill: rgb(38, 50, 56); transform-origin: 281.961px 381.202px;" id="els7nx03i93y" class="animable"></path><path d="M299.59,377.34a49.6,49.6,0,0,1-9.24-1.92c-.1,0-.23.24-.14.29a21.56,21.56,0,0,0,4.55,1.5,16.17,16.17,0,0,0,4.81.3C299.65,377.5,299.69,377.35,299.59,377.34Z" style="fill: rgb(38, 50, 56); transform-origin: 294.915px 376.496px;" id="el55oqsgqk30u" class="animable"></path><path d="M403,358a116.72,116.72,0,0,0-31.43-15c-3.16-1-6.35-1.84-9.54-2.71a.08.08,0,0,0,0,.15,153.71,153.71,0,0,1,16.34,6.14q8,3.44,15.8,7.16c3,1.41,5.84,2.95,8.75,4.45A.11.11,0,1,0,403,358Z" style="fill: rgb(38, 50, 56); transform-origin: 382.542px 349.255px;" id="el8zoruzy5pss" class="animable"></path><path d="M412,329.4l-47.05-1.56s-8.76-23.22-12.09-43.88,13.59-14.35,31.25,7.77S412,329.4,412,329.4Z" style="fill: rgb(4, 211, 97); transform-origin: 382.219px 300.387px;" id="eltyzd55qpd8" class="animable"></path><path d="M370.18,310.59a1.81,1.81,0,0,1-.75.37,1.49,1.49,0,0,1-1.39-.43,1.93,1.93,0,0,0-3,.33c-.18.27-.38.52-.54.81.29-.16.54-.36.82-.54a1.86,1.86,0,0,1,.74-.4,1.5,1.5,0,0,1,1.4.37,2,2,0,0,0,2.13.45,1.9,1.9,0,0,0,.83-.69c.18-.27.38-.52.54-.81C370.7,310.21,370.45,310.41,370.18,310.59ZM385,301.94c-.07-.32-.11-.64-.2-1-.09.32-.13.64-.19,1a1.88,1.88,0,0,1-.24.8,1.48,1.48,0,0,1-1.25.73,2,2,0,0,0-1.83,1.2,1.9,1.9,0,0,0-.1,1.07c.06.32.1.64.19,1,.09-.32.13-.64.2-1a1.72,1.72,0,0,1,.26-.79,1.52,1.52,0,0,1,1.29-.69,1.93,1.93,0,0,0,1.87-2.32Zm-16.53-25.87a1.87,1.87,0,0,0,0,.34c.07.31.1.63.19.95.09-.32.13-.64.2-.95v0C368.77,276.27,368.63,276.17,368.49,276.07ZM402,315.2a1.33,1.33,0,0,1-.93-.41,2,2,0,0,0-2.14-.44,1.88,1.88,0,0,0-.83.68c-.18.28-.38.53-.54.82.29-.16.54-.36.82-.54a1.57,1.57,0,0,1,.74-.37,1.5,1.5,0,0,1,1.4.42,2,2,0,0,0,1.93.47Zm-32.56-23.45a1.89,1.89,0,0,1-.8-.26,1.51,1.51,0,0,1-.68-1.29,2,2,0,0,0-1.26-1.8,2,2,0,0,0-1.07-.07c-.32.07-.64.11-1,.2.32.08.64.12,1,.19a1.93,1.93,0,0,1,.81.24,1.5,1.5,0,0,1,.73,1.25,2,2,0,0,0,1.2,1.83,1.9,1.9,0,0,0,1.07.1c.31-.07.63-.1.95-.19C370.1,291.86,369.78,291.82,369.47,291.75Zm21.64,32.91a1.72,1.72,0,0,1-.79-.27,1.49,1.49,0,0,1-.69-1.29,1.91,1.91,0,0,0-2.32-1.86c-.32.07-.64.1-1,.19.32.09.64.13,1,.2a1.75,1.75,0,0,1,.8.24,1.46,1.46,0,0,1,.73,1.25,2,2,0,0,0,1.2,1.82,1.82,1.82,0,0,0,1.07.11c.32-.07.64-.11,1-.2C391.75,324.76,391.43,324.72,391.11,324.66Z" style="fill: rgb(255, 255, 255); transform-origin: 383.475px 300.578px;" id="elyhin6q7wb5f" class="animable"></path><path d="M366.88,327.68c-.26,0-1.91-.29-1.92-.29-.12-.61-2.8-10.32-3.51-12.43-1.43-4.31-3.12-8.54-4.75-12.77a.12.12,0,0,0-.22.07c1.06,3.64,2.06,7.3,3.15,10.94-.33-.52-.65-1-1-1.56-.63-1.08-1.19-2.2-1.78-3.3a.1.1,0,0,0-.18.08,18.93,18.93,0,0,0,2.07,4.33,16.56,16.56,0,0,0,1.23,1.66l.27.91c.67,2.12,4.11,12.63,4.29,12.64l2.27,0C367,328,367,327.68,366.88,327.68Z" style="fill: rgb(38, 50, 56); transform-origin: 361.721px 315.05px;" id="elpwyan4jmp" class="animable"></path><path d="M404.37,320.29c-10.14-.76-20.36-.81-30.54-.65q-4.33.06-8.65.33a.07.07,0,0,0,0,.13c5.08.27,10.16.33,15.25.43s10.2.14,15.3.09c2.88,0,5.76-.05,8.64-.14A.1.1,0,0,0,404.37,320.29Z" style="fill: rgb(38, 50, 56); transform-origin: 384.787px 320.104px;" id="el4e5q1si04hc" class="animable"></path></g><g id="freepik--Device--inject-13" class="animable" style="transform-origin: 190.36px 352.88px;"><g id="el3rwz7xu52ss"><rect x="241.48" y="405.98" width="7.18" height="4.69" style="fill: rgb(69, 90, 100); transform-origin: 245.07px 408.325px; transform: rotate(180deg);" class="animable"></rect></g><g id="el1uvkd1z9tc6i"><rect x="232.16" y="405.67" width="7.18" height="4.69" style="fill: rgb(69, 90, 100); transform-origin: 235.75px 408.015px; transform: rotate(180deg);" class="animable"></rect></g><g id="elnwbopjgfd6"><rect x="222.85" y="405.36" width="7.18" height="4.69" style="fill: rgb(69, 90, 100); transform-origin: 226.44px 407.705px; transform: rotate(180deg);" class="animable"></rect></g><g id="el0qixp7nk3t8"><rect x="213.53" y="405.05" width="7.18" height="4.69" style="fill: rgb(69, 90, 100); transform-origin: 217.12px 407.395px; transform: rotate(180deg);" class="animable"></rect></g><g id="ellrjzscga3ap"><rect x="204.22" y="404.74" width="7.18" height="4.69" style="fill: rgb(69, 90, 100); transform-origin: 207.81px 407.085px; transform: rotate(180deg);" class="animable"></rect></g><g id="eld746n4rcnmu"><rect x="194.9" y="404.43" width="7.18" height="4.69" style="fill: rgb(69, 90, 100); transform-origin: 198.49px 406.775px; transform: rotate(180deg);" class="animable"></rect></g><g id="elbj10ryj8zi"><rect x="185.59" y="404.12" width="7.18" height="4.69" style="fill: rgb(69, 90, 100); transform-origin: 189.18px 406.465px; transform: rotate(180deg);" class="animable"></rect></g><g id="el1mfyu1m0gg4"><rect x="176.27" y="403.81" width="7.18" height="4.69" style="fill: rgb(69, 90, 100); transform-origin: 179.86px 406.155px; transform: rotate(180deg);" class="animable"></rect></g><g id="el90xslc894vd"><rect x="166.96" y="403.5" width="7.18" height="4.69" style="fill: rgb(69, 90, 100); transform-origin: 170.55px 405.845px; transform: rotate(180deg);" class="animable"></rect></g><polygon points="165.2 413.36 250.42 413.36 250.42 407.66 165.2 405.28 165.2 413.36" style="fill: rgb(55, 71, 79); transform-origin: 207.81px 409.32px;" id="elb5vynkdoosb" class="animable"></polygon><polygon points="82.03 390.86 222.71 390.86 200.34 286.12 59.65 286.12 82.03 390.86" style="fill: rgb(69, 90, 100); transform-origin: 141.18px 338.49px;" id="el57u702z01nn" class="animable"></polygon><polygon points="76.82 390.86 217.51 390.86 195.13 286.12 54.45 286.12 76.82 390.86" style="fill: rgb(55, 71, 79); transform-origin: 135.98px 338.49px;" id="el06t61dqin5jx" class="animable"></polygon><path d="M123.82,332.42a10.58,10.58,0,0,0,10.08,8.7,7.24,7.24,0,0,0,7.32-8.7,10.61,10.61,0,0,0-10.08-8.7A7.24,7.24,0,0,0,123.82,332.42Z" style="fill: rgb(38, 50, 56); transform-origin: 132.52px 332.42px;" id="el6t1ezvqqrlb" class="animable"></path><polygon points="116.61 418.21 185.8 418.21 185.8 412.84 116.61 410.6 116.61 418.21" style="fill: rgb(69, 90, 100); transform-origin: 151.205px 414.405px;" id="el5oeisvhea1c" class="animable"></polygon><polygon points="97.8 418.2 134.95 418.2 157.32 359.52 120.17 359.52 97.8 418.2" style="fill: rgb(69, 90, 100); transform-origin: 127.56px 388.86px;" id="el2rsagvrogrd" class="animable"></polygon><polygon points="91.68 418.2 128.83 418.2 151.21 359.52 114.06 359.52 91.68 418.2" style="fill: rgb(38, 50, 56); transform-origin: 121.445px 388.86px;" id="elxkn82slr7b" class="animable"></polygon><path d="M253.05,419.64h71.34c6.09,0-2.72-17.33-24.94-24S246,413.14,253.05,419.64Z" style="fill: rgb(55, 71, 79); transform-origin: 289.153px 407.064px;" id="eleam3579t5e" class="animable"></path><path d="M281.05,419.64a43.21,43.21,0,0,0-1.73-5.56,33.34,33.34,0,0,0-2.53-5.16,24.68,24.68,0,0,0-3.46-4.56l-1-1-1.11-.93c-.7-.68-1.57-1.12-2.34-1.74a17,17,0,0,1,5,3.13,19.46,19.46,0,0,1,3.78,4.6,25.11,25.11,0,0,1,2.41,5.43A22.6,22.6,0,0,1,281.05,419.64Z" style="fill: rgb(38, 50, 56); transform-origin: 274.965px 410.165px;" id="el60yb93scb3" class="animable"></path><path d="M272.59,403.15c-1,.52-1.95,1-2.91,1.57s-1.93,1.07-2.87,1.63c-1.88,1.13-3.75,2.27-5.52,3.55a33.82,33.82,0,0,0-5,4.19,14.83,14.83,0,0,0-2,2.55,9.42,9.42,0,0,0-1.28,3,8.38,8.38,0,0,1,.85-3.23,15.43,15.43,0,0,1,1.84-2.83,25.89,25.89,0,0,1,5-4.5,46.29,46.29,0,0,1,11.88-5.93Z" style="fill: rgb(38, 50, 56); transform-origin: 262.8px 411.395px;" id="eljnhkb49aokn" class="animable"></path></g><g id="freepik--Coffee--inject-13" class="animable animator-active" style="transform-origin: 367.985px 397.99px;"><polygon points="386.99 378.13 382.75 431.37 353.47 431.37 349.23 378.13 386.99 378.13" style="fill: rgb(4, 211, 97); transform-origin: 368.11px 404.75px;" id="elvq8ea9sqvt" class="animable"></polygon><g id="eldg2fm8c8yfw"><polygon points="386.99 378.13 382.75 431.37 353.47 431.37 349.23 378.13 386.99 378.13" style="opacity: 0.1; transform-origin: 368.11px 404.75px;" class="animable"></polygon></g><rect x="346.46" y="373.33" width="43.05" height="7.76" style="fill: rgb(69, 90, 100); transform-origin: 367.985px 377.21px;" id="els36u6ha41z" class="animable"></rect><polygon points="386.56 373.33 349.41 373.33 351.58 364.61 384.39 364.61 386.56 373.33" style="fill: rgb(55, 71, 79); transform-origin: 367.985px 368.97px;" id="eleqrat9dey1g" class="animable"></polygon><path d="M378.28,405.22c0,6.91-4.55,12.51-10.17,12.51s-10.17-5.6-10.17-12.51,4.56-12.52,10.17-12.52S378.28,398.31,378.28,405.22Z" style="fill: rgb(255, 255, 255); transform-origin: 368.11px 405.215px;" id="el8k04j6m3xtw" class="animable"></path></g><defs>     <filter id="active" height="200%">         <feMorphology in="SourceAlpha" result="DILATED" operator="dilate" radius="2"></feMorphology>                <feFlood flood-color="#32DFEC" flood-opacity="1" result="PINK"></feFlood>        <feComposite in="PINK" in2="DILATED" operator="in" result="OUTLINE"></feComposite>        <feMerge>            <feMergeNode in="OUTLINE"></feMergeNode>            <feMergeNode in="SourceGraphic"></feMergeNode>        </feMerge>    </filter>    <filter id="hover" height="200%">        <feMorphology in="SourceAlpha" result="DILATED" operator="dilate" radius="2"></feMorphology>                <feFlood flood-color="#ff0000" flood-opacity="0.5" result="PINK"></feFlood>        <feComposite in="PINK" in2="DILATED" operator="in" result="OUTLINE"></feComposite>        <feMerge>            <feMergeNode in="OUTLINE"></feMergeNode>            <feMergeNode in="SourceGraphic"></feMergeNode>        </feMerge>            <feColorMatrix type="matrix" values="0   0   0   0   0                0   1   0   0   0                0   0   0   0   0                0   0   0   1   0 "></feColorMatrix>    </filter></defs></svg>